<svg xmlns="http://www.w3.org/2000/svg" viewBox="0 0 100 100">
  <defs>
    <radialGradient id="shield1_body" cx="50%" cy="40%" r="55%">
      <stop offset="0%" stop-color="#6ee7b7"/>
      <stop offset="70%" stop-color="#10b981"/>
      <stop offset="100%" stop-color="#064e3b"/>
    </radialGradient>
    <linearGradient id="shield1_shell" x1="0%" y1="0%" x2="100%" y2="100%">
      <stop offset="0%" stop-color="#34d399"/>
      <stop offset="100%" stop-color="#059669"/>
    </linearGradient>
  </defs>
  <ellipse cx="50" cy="88" rx="26" ry="6" fill="rgba(0,0,0,0.3)"/>
  <!-- 四肢 -->
  <ellipse cx="26" cy="72" rx="10" ry="8" fill="#10b981"/>
  <ellipse cx="74" cy="72" rx="10" ry="8" fill="#10b981"/>
  <ellipse cx="32" cy="80" rx="8" ry="6" fill="#10b981"/>
  <ellipse cx="68" cy="80" rx="8" ry="6" fill="#10b981"/>
  <!-- 龟壳 -->
  <ellipse cx="50" cy="54" rx="34" ry="30" fill="url(#shield1_body)"/>
  <!-- 壳纹 -->
  <path d="M34 30 L28 52 L34 72 L50 78 L66 72 L72 52 L66 30 L50 24Z" fill="url(#shield1_shell)" opacity=".55"/>
  <line x1="50" y1="24" x2="50" y2="78" stroke="rgba(255,255,255,0.12)" stroke-width="1.5"/>
  <line x1="28" y1="52" x2="72" y2="52" stroke="rgba(255,255,255,0.12)" stroke-width="1.5"/>
  <line x1="34" y1="30" x2="66" y2="72" stroke="rgba(255,255,255,0.08)" stroke-width="1"/>
  <line x1="66" y1="30" x2="34" y2="72" stroke="rgba(255,255,255,0.08)" stroke-width="1"/>
  <!-- 头部 -->
  <ellipse cx="50" cy="32" rx="16" ry="14" fill="#10b981"/>
  <ellipse cx="50" cy="30" rx="14" ry="12" fill="#34d399"/>
  <!-- 眼睛 -->
  <ellipse cx="43" cy="29" rx="5.5" ry="6" fill="#064e3b"/>
  <ellipse cx="57" cy="29" rx="5.5" ry="6" fill="#064e3b"/>
  <ellipse cx="44" cy="28" rx="2.5" ry="3" fill="#fff" opacity=".9"/>
  <ellipse cx="58" cy="28" rx="2.5" ry="3" fill="#fff" opacity=".9"/>
  <!-- 腮 -->
  <ellipse cx="36" cy="34" rx="5" ry="3" fill="#059669" opacity=".4"/>
  <ellipse cx="64" cy="34" rx="5" ry="3" fill="#059669" opacity=".4"/>
  <!-- 嘴 -->
  <path d="M45 39 Q50 44 55 39" stroke="#064e3b" stroke-width="2" fill="none" stroke-linecap="round"/>
  <!-- 护盾标记 -->
  <path d="M42 48 L38 56 L42 64 L50 68 L58 64 L62 56 L58 48 L50 44Z" fill="rgba(255,255,255,0.15)" stroke="#6ee7b7" stroke-width="1.5" opacity=".7"/>
</svg>
